<?xml version="1.0" encoding="UTF-8" standalone="no"?>
<!DOCTYPE svg PUBLIC "-//W3C//DTD SVG 1.1//EN" "http://www.w3.org/Graphics/SVG/1.1/DTD/svg11.dtd">
<svg version="1.1" xmlns="http://www.w3.org/2000/svg" xmlns:xlink="http://www.w3.org/1999/xlink" preserveAspectRatio="xMidYMid meet" viewBox="181.8296943231441 186.15204767200962 238.58515283842792 185.13537117903925" width="234.59" height="181.14"><defs><path d="M417.41 277.72C417.41 327.71 364.86 368.29 300.12 368.29C235.39 368.29 182.83 327.71 182.83 277.72C182.83 227.73 235.39 187.15 300.12 187.15C364.86 187.15 417.41 227.73 417.41 277.72Z" id="cUdnVoG1U"></path><path d="M298.7 215.82L245.26 245.51L245.26 304.9L298.7 334.59L352.15 304.9L352.15 245.51L298.7 215.82Z" id="c1PnRJsLPL"></path><path d="M337.53 275.2C337.53 293.33 320.14 308.04 298.7 308.04C277.27 308.04 259.88 293.33 259.88 275.2C259.88 257.08 277.27 242.37 298.7 242.37C320.14 242.37 337.53 257.08 337.53 275.2Z" id="ceAl0WBBc"></path><path d="M285.28 271.64C285.28 274.71 283.94 277.2 282.31 277.2C280.67 277.2 279.34 274.71 279.34 271.64C279.34 268.57 280.67 266.08 282.31 266.08C283.94 266.08 285.28 268.57 285.28 271.64Z" id="c2HfbQrDEZ"></path><path d="M315.28 271.64C315.28 274.71 313.94 277.2 312.31 277.2C310.67 277.2 309.34 274.71 309.34 271.64C309.34 268.57 310.67 266.08 312.31 266.08C313.94 266.08 315.28 268.57 315.28 271.64Z" id="dQJOeaT2U"></path><path d="M299.96 275.2C301.19 275.2 302.18 276.5 302.18 278.1C302.18 282.54 297.73 284.74 297.73 284.86C297.73 284.86 297.73 284.86 297.73 284.86C297.73 284.74 293.28 282.54 293.28 278.1C293.28 276.5 294.27 275.2 295.5 275.2C296.73 275.2 297.73 276.34 297.73 277.94C297.73 276.34 298.73 275.2 299.96 275.2Z" id="bYqCUkYLs"></path><path d="M358.6 249.23L382.36 284.86L358.6 284.86L358.6 249.23Z" id="b6N3TbZ8HR"></path><path d="M239.04 249.23L215.28 284.86L239.04 284.86L239.04 249.23Z" id="b5gwUWVlHS"></path></defs><g><g><use xlink:href="#cUdnVoG1U" opacity="1" fill="#536373" fill-opacity="1"></use></g><g><use xlink:href="#c1PnRJsLPL" opacity="1" fill="#f4ebd6" fill-opacity="1"></use></g><g><use xlink:href="#ceAl0WBBc" opacity="1" fill="#e2c79c" fill-opacity="1"></use></g><g><use xlink:href="#c2HfbQrDEZ" opacity="1" fill="#64615a" fill-opacity="1"></use></g><g><use xlink:href="#dQJOeaT2U" opacity="1" fill="#64615a" fill-opacity="1"></use></g><g><use xlink:href="#bYqCUkYLs" opacity="1" fill="#64615a" fill-opacity="1"></use></g><g><use xlink:href="#b6N3TbZ8HR" opacity="1" fill="#f4ebd6" fill-opacity="1"></use></g><g><use xlink:href="#b5gwUWVlHS" opacity="1" fill="#f4ebd6" fill-opacity="1"></use></g></g></svg>